<?xml version="1.0" encoding="UTF-8"?><svg xmlns="http://www.w3.org/2000/svg" xmlns:xlink="http://www.w3.org/1999/xlink" width="600" zoomAndPan="magnify" viewBox="0 0 600 599.999999" height="599.999999" preserveAspectRatio="xMidYMid meet" version="1.0"><path fill="rgb(72.938538%, 18.818665%, 80.778503%)" d="M 591.222656 447.738281 C 591.222656 527.515625 526.574219 592.191406 446.824219 592.191406 L 151.449219 592.191406 C 71.683594 592.191406 7.050781 527.515625 7.050781 447.738281 L 7.050781 152.261719 C 7.050781 72.480469 71.683594 7.808594 151.449219 7.808594 L 446.824219 7.808594 C 526.574219 7.808594 591.222656 72.484375 591.222656 152.261719 Z M 591.222656 447.738281 " fill-opacity="1" fill-rule="nonzero"/><path fill="rgb(100%, 5.099487%, 66.268921%)" d="M 446.824219 7.808594 L 151.449219 7.808594 C 71.683594 7.808594 7.050781 72.484375 7.050781 152.261719 L 7.050781 300 L 591.21875 300 L 591.21875 152.261719 C 591.222656 72.484375 526.570312 7.808594 446.824219 7.808594 Z M 446.824219 7.808594 " fill-opacity="1" fill-rule="nonzero"/><path stroke-linecap="round" transform="matrix(4.804964, 0, 0, 4.806719, -31.712763, -36.470307)" fill="none" stroke-linejoin="round" d="M 129.644133 100.735784 C 129.644133 117.332832 116.189624 130.788119 99.592206 130.788119 L 38.119323 130.788119 C 21.518653 130.788119 8.067395 117.332832 8.067395 100.735784 L 8.067395 39.264212 C 8.067395 22.666351 21.518653 9.211877 38.119323 9.211877 L 99.592206 9.211877 C 116.189624 9.211877 129.644133 22.667164 129.644133 39.264212 Z M 129.644133 100.735784 " stroke="rgb(19.999695%, 21.179199%, 22.749329%)" stroke-width="3" stroke-opacity="1" stroke-miterlimit="10"/><path fill="rgb(72.938538%, 18.818665%, 80.778503%)" d="M 411.707031 77.28125 C 472.496094 77.28125 521.769531 126.574219 521.769531 187.382812 L 521.769531 412.613281 C 521.769531 473.429688 472.496094 522.71875 411.707031 522.71875 L 186.5625 522.71875 C 125.773438 522.71875 76.5 473.4375 76.5 412.613281 L 76.5 187.382812 C 76.5 126.574219 125.773438 77.28125 186.5625 77.28125 Z M 411.707031 77.28125 " fill-opacity="1" fill-rule="nonzero"/><path fill="rgb(100%, 5.099487%, 66.268921%)" d="M 76.5 187.382812 L 76.5 412.613281 C 76.5 473.429688 125.773438 522.71875 186.5625 522.71875 L 299.136719 522.71875 L 299.136719 77.28125 L 186.5625 77.28125 C 125.769531 77.28125 76.5 126.574219 76.5 187.382812 Z M 76.5 187.382812 " fill-opacity="1" fill-rule="nonzero"/><path stroke-linecap="round" transform="matrix(4.804964, 0, 0, 4.806719, -31.712763, -36.470307)" fill="none" stroke-linejoin="round" d="M 92.283683 23.665116 C 104.934987 23.665116 115.189681 33.92013 115.189681 46.570879 L 115.189681 93.428304 C 115.189681 106.080678 104.934987 116.33488 92.283683 116.33488 L 45.427032 116.33488 C 32.775728 116.33488 22.521034 106.082304 22.521034 93.428304 L 22.521034 46.570879 C 22.521034 33.92013 32.775728 23.665116 45.427032 23.665116 Z M 92.283683 23.665116 " stroke="rgb(19.999695%, 21.179199%, 22.749329%)" stroke-width="3" stroke-opacity="1" stroke-miterlimit="10"/><path fill="rgb(100%, 100%, 100%)" d="M 299.132812 167.660156 C 372.191406 167.660156 431.4375 226.902344 431.4375 299.992188 C 431.4375 373.097656 372.191406 432.339844 299.132812 432.339844 C 226.074219 432.339844 166.828125 373.097656 166.828125 299.992188 C 166.828125 226.898438 226.074219 167.660156 299.132812 167.660156 Z M 299.132812 167.660156 " fill-opacity="1" fill-rule="nonzero"/><path fill="rgb(78.039551%, 83.529663%, 87.838745%)" d="M 166.828125 299.992188 C 166.828125 226.898438 226.074219 167.660156 299.132812 167.660156 C 372.191406 167.660156 431.4375 226.902344 431.4375 299.992188 " fill-opacity="1" fill-rule="nonzero"/><path stroke-linecap="round" transform="matrix(4.804964, 0, 0, 4.806719, -31.712763, -36.470307)" fill="none" stroke-linejoin="round" d="M 68.854951 42.467735 C 84.059767 42.467735 96.389951 54.792606 96.389951 69.998372 C 96.389951 85.207389 84.059767 97.53226 68.854951 97.53226 C 53.650136 97.53226 41.319952 85.207389 41.319952 69.998372 C 41.319952 54.791793 53.650136 42.467735 68.854951 42.467735 Z M 68.854951 42.467735 " stroke="rgb(19.999695%, 21.179199%, 22.749329%)" stroke-width="3" stroke-opacity="1" stroke-miterlimit="10"/><path fill="rgb(100%, 100%, 100%)" d="M 387.386719 300 C 387.386719 301.445312 387.351562 302.890625 387.28125 304.332031 C 387.207031 305.773438 387.101562 307.214844 386.960938 308.652344 C 386.820312 310.089844 386.640625 311.523438 386.429688 312.953125 C 386.21875 314.382812 385.972656 315.804688 385.691406 317.222656 C 385.410156 318.640625 385.09375 320.050781 384.742188 321.453125 C 384.390625 322.851562 384.003906 324.246094 383.585938 325.628906 C 383.167969 327.011719 382.714844 328.382812 382.226562 329.742188 C 381.742188 331.101562 381.21875 332.449219 380.667969 333.785156 C 380.117188 335.121094 379.53125 336.441406 378.914062 337.746094 C 378.296875 339.054688 377.644531 340.34375 376.964844 341.617188 C 376.285156 342.890625 375.574219 344.148438 374.828125 345.386719 C 374.085938 346.625 373.316406 347.847656 372.511719 349.046875 C 371.710938 350.25 370.878906 351.429688 370.019531 352.589844 C 369.15625 353.75 368.269531 354.890625 367.351562 356.007812 C 366.4375 357.125 365.492188 358.21875 364.523438 359.289062 C 363.554688 360.359375 362.558594 361.40625 361.539062 362.425781 C 360.515625 363.449219 359.46875 364.445312 358.398438 365.414062 C 357.328125 366.386719 356.238281 367.328125 355.121094 368.246094 C 354.003906 369.160156 352.867188 370.050781 351.707031 370.910156 C 350.546875 371.773438 349.363281 372.605469 348.164062 373.40625 C 346.960938 374.210938 345.742188 374.980469 344.503906 375.722656 C 343.265625 376.46875 342.007812 377.179688 340.734375 377.859375 C 339.460938 378.542969 338.171875 379.191406 336.867188 379.808594 C 335.558594 380.425781 334.242188 381.011719 332.90625 381.566406 C 331.570312 382.117188 330.222656 382.636719 328.863281 383.125 C 327.503906 383.609375 326.132812 384.0625 324.75 384.484375 C 323.371094 384.902344 321.976562 385.289062 320.578125 385.640625 C 319.175781 385.992188 317.765625 386.308594 316.351562 386.589844 C 314.933594 386.871094 313.511719 387.117188 312.082031 387.328125 C 310.652344 387.542969 309.222656 387.71875 307.785156 387.859375 C 306.347656 388 304.90625 388.109375 303.464844 388.179688 C 302.019531 388.25 300.578125 388.285156 299.132812 388.285156 C 297.6875 388.285156 296.246094 388.25 294.800781 388.179688 C 293.359375 388.109375 291.921875 388 290.484375 387.859375 C 289.046875 387.71875 287.613281 387.542969 286.183594 387.328125 C 284.753906 387.117188 283.332031 386.871094 281.914062 386.589844 C 280.5 386.308594 279.089844 385.992188 277.6875 385.640625 C 276.289062 385.289062 274.898438 384.902344 273.515625 384.484375 C 272.132812 384.0625 270.761719 383.609375 269.402344 383.125 C 268.042969 382.636719 266.695312 382.117188 265.359375 381.566406 C 264.027344 381.011719 262.707031 380.425781 261.398438 379.808594 C 260.09375 379.191406 258.804688 378.542969 257.53125 377.859375 C 256.257812 377.179688 255 376.46875 253.761719 375.722656 C 252.523438 374.980469 251.304688 374.210938 250.101562 373.40625 C 248.902344 372.605469 247.722656 371.773438 246.5625 370.910156 C 245.402344 370.050781 244.261719 369.160156 243.144531 368.246094 C 242.03125 367.328125 240.9375 366.386719 239.867188 365.414062 C 238.796875 364.445312 237.75 363.449219 236.730469 362.425781 C 235.707031 361.40625 234.710938 360.359375 233.742188 359.289062 C 232.773438 358.21875 231.828125 357.125 230.914062 356.007812 C 229.996094 354.890625 229.109375 353.75 228.246094 352.589844 C 227.386719 351.429688 226.554688 350.25 225.753906 349.046875 C 224.949219 347.847656 224.179688 346.625 223.4375 345.386719 C 222.695312 344.148438 221.980469 342.890625 221.300781 341.617188 C 220.621094 340.34375 219.972656 339.054688 219.351562 337.746094 C 218.734375 336.441406 218.152344 335.121094 217.597656 333.785156 C 217.046875 332.449219 216.527344 331.101562 216.039062 329.742188 C 215.550781 328.382812 215.101562 327.011719 214.679688 325.628906 C 214.261719 324.246094 213.875 322.851562 213.523438 321.453125 C 213.175781 320.050781 212.859375 318.640625 212.574219 317.222656 C 212.292969 315.804688 212.046875 314.382812 211.835938 312.953125 C 211.625 311.523438 211.445312 310.089844 211.304688 308.652344 C 211.164062 307.214844 211.058594 305.773438 210.988281 304.332031 C 210.914062 302.890625 210.878906 301.445312 210.878906 300 C 210.878906 298.554688 210.914062 297.109375 210.988281 295.667969 C 211.058594 294.226562 211.164062 292.785156 211.304688 291.347656 C 211.445312 289.910156 211.625 288.476562 211.835938 287.046875 C 212.046875 285.617188 212.292969 284.195312 212.574219 282.777344 C 212.859375 281.359375 213.175781 279.949219 213.523438 278.546875 C 213.875 277.148438 214.261719 275.753906 214.679688 274.371094 C 215.101562 272.988281 215.550781 271.617188 216.039062 270.257812 C 216.527344 268.898438 217.046875 267.550781 217.597656 266.214844 C 218.152344 264.878906 218.734375 263.558594 219.351562 262.253906 C 219.972656 260.945312 220.621094 259.65625 221.300781 258.382812 C 221.980469 257.109375 222.695312 255.851562 223.4375 254.613281 C 224.179688 253.375 224.949219 252.152344 225.753906 250.953125 C 226.554688 249.75 227.386719 248.570312 228.246094 247.410156 C 229.109375 246.25 229.996094 245.109375 230.914062 243.992188 C 231.828125 242.875 232.773438 241.78125 233.742188 240.710938 C 234.710938 239.640625 235.707031 238.59375 236.730469 237.574219 C 237.75 236.550781 238.796875 235.554688 239.867188 234.585938 C 240.9375 233.613281 242.03125 232.671875 243.144531 231.753906 C 244.261719 230.839844 245.402344 229.949219 246.5625 229.089844 C 247.722656 228.226562 248.902344 227.394531 250.101562 226.59375 C 251.304688 225.789062 252.523438 225.019531 253.761719 224.277344 C 255 223.53125 256.257812 222.820312 257.53125 222.140625 C 258.804688 221.457031 260.09375 220.808594 261.398438 220.191406 C 262.707031 219.574219 264.027344 218.988281 265.359375 218.433594 C 266.695312 217.882812 268.042969 217.363281 269.402344 216.875 C 270.761719 216.390625 272.132812 215.9375 273.515625 215.515625 C 274.898438 215.097656 276.289062 214.710938 277.6875 214.359375 C 279.089844 214.007812 280.5 213.691406 281.914062 213.410156 C 283.332031 213.128906 284.753906 212.882812 286.183594 212.671875 C 287.613281 212.457031 289.046875 212.28125 290.484375 212.140625 C 291.921875 212 293.359375 211.890625 294.800781 211.820312 C 296.246094 211.75 297.6875 211.714844 299.132812 211.714844 C 300.578125 211.714844 302.019531 211.75 303.464844 211.820312 C 304.90625 211.890625 306.347656 212 307.785156 212.140625 C 309.222656 212.28125 310.652344 212.457031 312.082031 212.671875 C 313.511719 212.882812 314.933594 213.128906 316.351562 213.410156 C 317.765625 213.691406 319.175781 214.007812 320.578125 214.359375 C 321.976562 214.710938 323.371094 215.097656 324.75 215.515625 C 326.132812 215.9375 327.503906 216.390625 328.863281 216.875 C 330.222656 217.363281 331.570312 217.882812 332.90625 218.433594 C 334.242188 218.988281 335.558594 219.574219 336.867188 220.191406 C 338.171875 220.808594 339.460938 221.457031 340.734375 222.140625 C 342.007812 222.820312 343.265625 223.53125 344.503906 224.277344 C 345.742188 225.019531 346.960938 225.789062 348.164062 226.59375 C 349.363281 227.394531 350.546875 228.226562 351.707031 229.089844 C 352.863281 229.949219 354.003906 230.839844 355.121094 231.753906 C 356.238281 232.671875 357.328125 233.613281 358.398438 234.585938 C 359.46875 235.554688 360.515625 236.550781 361.539062 237.574219 C 362.558594 238.59375 363.554688 239.640625 364.523438 240.710938 C 365.492188 241.78125 366.4375 242.875 367.351562 243.992188 C 368.269531 245.109375 369.15625 246.25 370.019531 247.410156 C 370.878906 248.570312 371.710938 249.75 372.511719 250.953125 C 373.316406 252.152344 374.085938 253.375 374.828125 254.613281 C 375.574219 255.851562 376.285156 257.109375 376.964844 258.382812 C 377.644531 259.65625 378.296875 260.945312 378.914062 262.253906 C 379.53125 263.558594 380.117188 264.878906 380.667969 266.214844 C 381.21875 267.550781 381.742188 268.898438 382.226562 270.257812 C 382.714844 271.617188 383.167969 272.988281 383.585938 274.371094 C 384.003906 275.753906 384.390625 277.148438 384.742188 278.546875 C 385.09375 279.949219 385.410156 281.359375 385.691406 282.777344 C 385.972656 284.195312 386.21875 285.617188 386.429688 287.046875 C 386.640625 288.476562 386.820312 289.910156 386.960938 291.347656 C 387.101562 292.785156 387.207031 294.226562 387.28125 295.667969 C 387.351562 297.109375 387.386719 298.554688 387.386719 300 Z M 387.386719 300 " fill-opacity="1" fill-rule="nonzero"/><path fill="rgb(78.039551%, 83.529663%, 87.838745%)" d="M 299.136719 211.707031 C 347.878906 211.707031 387.386719 251.234375 387.386719 300 C 387.386719 348.753906 347.878906 388.292969 299.144531 388.292969 " fill-opacity="1" fill-rule="nonzero"/><path stroke-linecap="round" transform="matrix(4.804964, 0, 0, 4.806719, -31.712763, -36.470307)" fill="none" stroke-linejoin="round" d="M 87.222186 69.999998 C 87.222186 70.300683 87.21487 70.601369 87.200236 70.901243 C 87.18479 71.201116 87.16284 71.500989 87.133573 71.80005 C 87.104307 72.09911 87.066911 72.397358 87.023011 72.694793 C 86.979111 72.992228 86.927894 73.288038 86.869361 73.583036 C 86.810828 73.878033 86.744978 74.171405 86.671811 74.463151 C 86.598645 74.754085 86.518162 75.044206 86.431175 75.33189 C 86.344188 75.619573 86.249885 75.904818 86.148264 76.187625 C 86.047457 76.470433 85.93852 76.750802 85.823893 77.028733 C 85.709265 77.306665 85.587321 77.581345 85.458873 77.852775 C 85.330425 78.125018 85.194661 78.393197 85.053205 78.658126 C 84.91175 78.923054 84.763791 79.184732 84.608516 79.442347 C 84.454053 79.699962 84.2939 79.954326 84.12643 80.203814 C 83.959772 80.454114 83.786612 80.699539 83.60776 80.9409 C 83.428096 81.182262 83.243554 81.41956 83.052508 81.651982 C 82.862275 81.884404 82.665538 82.11195 82.463924 82.33462 C 82.262309 82.55729 82.055004 82.775084 81.842821 82.98719 C 81.629825 83.200108 81.411952 83.407337 81.1892 83.608878 C 80.966449 83.811232 80.739633 84.007084 80.507126 84.19806 C 80.274619 84.388223 80.038047 84.573511 79.796598 84.752297 C 79.555148 84.931896 79.308821 85.104994 79.059242 85.27159 C 78.80885 85.438999 78.555206 85.599094 78.297497 85.7535 C 78.039788 85.908719 77.778015 86.056624 77.512989 86.198027 C 77.247964 86.340244 76.979687 86.475146 76.708158 86.603547 C 76.435816 86.731948 76.161848 86.853848 75.883815 86.969246 C 75.605782 87.083832 75.32531 87.191916 75.0424 87.293499 C 74.759489 87.39427 74.47414 87.488539 74.186352 87.576306 C 73.899376 87.663262 73.609149 87.743715 73.318109 87.816855 C 73.026256 87.889995 72.732777 87.955821 72.438485 88.014333 C 72.14338 88.072845 71.847462 88.124042 71.549918 88.167926 C 71.252374 88.212623 70.95483 88.249193 70.655661 88.278449 C 70.356491 88.307705 70.056508 88.330459 69.756525 88.345087 C 69.45573 88.359715 69.155747 88.367029 68.854951 88.367029 C 68.554156 88.367029 68.254173 88.359715 67.953377 88.345087 C 67.653394 88.330459 67.354225 88.307705 67.055055 88.278449 C 66.755885 88.249193 66.457528 88.212623 66.159985 88.167926 C 65.862441 88.124042 65.566523 88.072845 65.271418 88.014333 C 64.977126 87.955821 64.683647 87.889995 64.391794 87.816855 C 64.100754 87.743715 63.811339 87.663262 63.523551 87.576306 C 63.235763 87.488539 62.950413 87.39427 62.667503 87.293499 C 62.384592 87.191916 62.104121 87.083832 61.826088 86.969246 C 61.548868 86.853848 61.274087 86.731948 61.001745 86.603547 C 60.730216 86.475146 60.461939 86.340244 60.196913 86.198027 C 59.931888 86.056624 59.670114 85.908719 59.412406 85.7535 C 59.154697 85.599094 58.901053 85.438999 58.650661 85.27159 C 58.401082 85.104994 58.155567 84.931896 57.914118 84.752297 C 57.672668 84.573511 57.435284 84.388223 57.202777 84.19806 C 56.971083 84.007084 56.743454 83.811232 56.520702 83.608878 C 56.297951 83.407337 56.080077 83.200108 55.867894 82.98719 C 55.654898 82.775084 55.447593 82.55729 55.245979 82.33462 C 55.044365 82.11195 54.847628 81.884404 54.657395 81.651982 C 54.466349 81.41956 54.281807 81.182262 54.102142 80.9409 C 53.923291 80.699539 53.75013 80.454114 53.583473 80.203814 C 53.416003 79.954326 53.25585 79.699962 53.101387 79.442347 C 52.946924 79.184732 52.798152 78.923054 52.656697 78.658126 C 52.515242 78.393197 52.38029 78.125018 52.251029 77.852775 C 52.122582 77.581345 52.00145 77.306665 51.88601 77.028733 C 51.771382 76.750802 51.663258 76.470433 51.561638 76.187625 C 51.460018 75.904818 51.366528 75.619573 51.278728 75.33189 C 51.191741 75.044206 51.111258 74.754085 51.038091 74.463151 C 50.965738 74.171405 50.899888 73.878033 50.840542 73.583036 C 50.782008 73.288038 50.730792 72.992228 50.686892 72.694793 C 50.642992 72.397358 50.605596 72.09911 50.576329 71.80005 C 50.547063 71.500989 50.525113 71.201116 50.510479 70.901243 C 50.495033 70.601369 50.487716 70.300683 50.487716 69.999998 C 50.487716 69.699312 50.495033 69.398626 50.510479 69.098753 C 50.525113 68.798879 50.547063 68.499006 50.576329 68.199946 C 50.605596 67.900885 50.642992 67.602637 50.686892 67.305202 C 50.730792 67.007767 50.782008 66.711957 50.840542 66.41696 C 50.899888 66.121962 50.965738 65.82859 51.038091 65.536844 C 51.111258 65.24591 51.191741 64.955789 51.278728 64.668105 C 51.366528 64.380422 51.460018 64.095177 51.561638 63.81237 C 51.663258 63.529562 51.771382 63.249193 51.88601 62.971262 C 52.00145 62.693331 52.122582 62.41865 52.251029 62.14722 C 52.38029 61.874977 52.515242 61.606798 52.656697 61.341869 C 52.798152 61.076941 52.946924 60.815263 53.101387 60.557648 C 53.25585 60.300034 53.416003 60.04567 53.583473 59.796182 C 53.75013 59.545881 53.923291 59.300456 54.102142 59.059095 C 54.281807 58.817733 54.466349 58.580435 54.657395 58.348013 C 54.847628 58.115591 55.044365 57.888045 55.245979 57.665375 C 55.447593 57.442705 55.654898 57.224911 55.867894 57.012805 C 56.080077 56.799887 56.297951 56.592658 56.520702 56.391117 C 56.743454 56.188764 56.971083 55.992911 57.202777 55.801935 C 57.435284 55.611772 57.672668 55.426484 57.914118 55.247698 C 58.155567 55.068099 58.401082 54.895002 58.650661 54.728405 C 58.901053 54.560996 59.154697 54.400902 59.412406 54.246495 C 59.670114 54.091276 59.931888 53.943371 60.196913 53.801968 C 60.461939 53.659751 60.730216 53.524849 61.001745 53.396448 C 61.274087 53.268047 61.548868 53.146147 61.826088 53.030749 C 62.104121 52.916163 62.384592 52.808079 62.667503 52.706496 C 62.950413 52.605726 63.235763 52.511456 63.523551 52.423689 C 63.811339 52.336734 64.100754 52.25628 64.391794 52.18314 C 64.683647 52.11 64.977126 52.044174 65.271418 51.985663 C 65.566523 51.927151 65.862441 51.875953 66.159985 51.832069 C 66.457528 51.787372 66.755885 51.750802 67.055055 51.721547 C 67.354225 51.692291 67.653394 51.669536 67.953377 51.654908 C 68.254173 51.64028 68.554156 51.632966 68.854951 51.632966 C 69.155747 51.632966 69.45573 51.64028 69.756525 51.654908 C 70.056508 51.669536 70.356491 51.692291 70.655661 51.721547 C 70.95483 51.750802 71.252374 51.787372 71.549918 51.832069 C 71.847462 51.875953 72.14338 51.927151 72.438485 51.985663 C 72.732777 52.044174 73.026256 52.11 73.318109 52.18314 C 73.609149 52.25628 73.899376 52.336734 74.186352 52.423689 C 74.47414 52.511456 74.759489 52.605726 75.0424 52.706496 C 75.32531 52.808079 75.605782 52.916163 75.883815 53.030749 C 76.161848 53.146147 76.435816 53.268047 76.708158 53.396448 C 76.979687 53.524849 77.247964 53.659751 77.512989 53.801968 C 77.778015 53.943371 78.039788 54.091276 78.297497 54.246495 C 78.555206 54.400902 78.80885 54.560996 79.059242 54.728405 C 79.308821 54.895002 79.555148 55.068099 79.796598 55.247698 C 80.037234 55.426484 80.274619 55.611772 80.507126 55.801935 C 80.739633 55.992911 80.966449 56.188764 81.1892 56.391117 C 81.411952 56.592658 81.629825 56.799887 81.842821 57.012805 C 82.055004 57.224911 82.262309 57.442705 82.463924 57.665375 C 82.665538 57.888045 82.862275 58.115591 83.052508 58.348013 C 83.243554 58.580435 83.428096 58.817733 83.60776 59.059095 C 83.786612 59.300456 83.959772 59.545881 84.12643 59.796182 C 84.2939 60.04567 84.454053 60.300034 84.608516 60.557648 C 84.763791 60.815263 84.91175 61.076941 85.053205 61.341869 C 85.194661 61.606798 85.330425 61.874977 85.458873 62.14722 C 85.587321 62.41865 85.709265 62.693331 85.823893 62.971262 C 85.93852 63.249193 86.047457 63.529562 86.148264 63.81237 C 86.249885 64.095177 86.344188 64.380422 86.431175 64.668105 C 86.518162 64.955789 86.598645 65.24591 86.671811 65.536844 C 86.744978 65.82859 86.810828 66.121962 86.869361 66.41696 C 86.927894 66.711957 86.979111 67.007767 87.023011 67.305202 C 87.066911 67.602637 87.104307 67.900885 87.133573 68.199946 C 87.16284 68.499006 87.18479 68.798879 87.200236 69.098753 C 87.21487 69.398626 87.222186 69.699312 87.222186 69.999998 Z M 87.222186 69.999998 " stroke="rgb(19.999695%, 21.179199%, 22.749329%)" stroke-width="3" stroke-opacity="1" stroke-miterlimit="10"/><path fill="rgb(78.039551%, 83.529663%, 87.838745%)" d="M 459.359375 165.753906 C 459.359375 166.40625 459.328125 167.054688 459.265625 167.703125 C 459.199219 168.351562 459.105469 168.996094 458.976562 169.632812 C 458.851562 170.273438 458.691406 170.902344 458.503906 171.527344 C 458.3125 172.148438 458.09375 172.761719 457.847656 173.363281 C 457.597656 173.964844 457.320312 174.554688 457.011719 175.128906 C 456.703125 175.703125 456.371094 176.261719 456.007812 176.804688 C 455.648438 177.34375 455.257812 177.867188 454.847656 178.371094 C 454.433594 178.875 453.996094 179.355469 453.535156 179.816406 C 453.074219 180.277344 452.59375 180.714844 452.089844 181.128906 C 451.585938 181.542969 451.0625 181.929688 450.523438 182.292969 C 449.980469 182.652344 449.421875 182.988281 448.847656 183.292969 C 448.273438 183.601562 447.6875 183.878906 447.085938 184.128906 C 446.484375 184.378906 445.871094 184.597656 445.25 184.785156 C 444.625 184.976562 443.992188 185.132812 443.355469 185.261719 C 442.714844 185.386719 442.074219 185.484375 441.425781 185.546875 C 440.777344 185.613281 440.128906 185.644531 439.476562 185.644531 C 438.824219 185.644531 438.175781 185.613281 437.527344 185.546875 C 436.878906 185.484375 436.234375 185.386719 435.597656 185.261719 C 434.957031 185.132812 434.328125 184.976562 433.703125 184.785156 C 433.082031 184.597656 432.46875 184.378906 431.867188 184.128906 C 431.265625 183.878906 430.679688 183.601562 430.105469 183.292969 C 429.53125 182.988281 428.972656 182.652344 428.429688 182.292969 C 427.886719 181.929688 427.367188 181.542969 426.863281 181.128906 C 426.359375 180.714844 425.878906 180.277344 425.417969 179.816406 C 424.957031 179.355469 424.519531 178.875 424.105469 178.371094 C 423.695312 177.867188 423.304688 177.34375 422.945312 176.804688 C 422.582031 176.261719 422.25 175.703125 421.941406 175.128906 C 421.632812 174.554688 421.355469 173.964844 421.105469 173.363281 C 420.859375 172.761719 420.636719 172.148438 420.449219 171.527344 C 420.261719 170.902344 420.101562 170.273438 419.976562 169.632812 C 419.847656 168.996094 419.753906 168.351562 419.6875 167.703125 C 419.625 167.054688 419.59375 166.40625 419.59375 165.753906 C 419.59375 165.101562 419.625 164.453125 419.6875 163.804688 C 419.753906 163.15625 419.847656 162.511719 419.976562 161.871094 C 420.101562 161.234375 420.261719 160.601562 420.449219 159.980469 C 420.636719 159.355469 420.859375 158.742188 421.105469 158.140625 C 421.355469 157.539062 421.632812 156.953125 421.941406 156.378906 C 422.25 155.800781 422.582031 155.246094 422.945312 154.703125 C 423.304688 154.160156 423.695312 153.636719 424.105469 153.136719 C 424.519531 152.632812 424.957031 152.148438 425.417969 151.6875 C 425.878906 151.226562 426.359375 150.792969 426.863281 150.378906 C 427.367188 149.964844 427.886719 149.578125 428.429688 149.214844 C 428.972656 148.851562 429.53125 148.519531 430.105469 148.210938 C 430.679688 147.90625 431.265625 147.625 431.867188 147.378906 C 432.46875 147.128906 433.082031 146.910156 433.703125 146.71875 C 434.328125 146.53125 434.957031 146.371094 435.597656 146.246094 C 436.234375 146.117188 436.878906 146.023438 437.527344 145.957031 C 438.175781 145.894531 438.824219 145.863281 439.476562 145.863281 C 440.128906 145.863281 440.777344 145.894531 441.425781 145.957031 C 442.074219 146.023438 442.714844 146.117188 443.355469 146.246094 C 443.992188 146.371094 444.625 146.53125 445.25 146.71875 C 445.871094 146.910156 446.484375 147.128906 447.085938 147.378906 C 447.6875 147.625 448.273438 147.90625 448.847656 148.210938 C 449.421875 148.519531 449.980469 148.851562 450.523438 149.214844 C 451.0625 149.578125 451.585938 149.964844 452.089844 150.378906 C 452.59375 150.792969 453.074219 151.226562 453.535156 151.6875 C 453.996094 152.148438 454.433594 152.632812 454.847656 153.136719 C 455.257812 153.636719 455.648438 154.160156 456.007812 154.703125 C 456.371094 155.246094 456.703125 155.800781 457.011719 156.378906 C 457.320312 156.953125 457.597656 157.539062 457.847656 158.140625 C 458.09375 158.742188 458.3125 159.355469 458.503906 159.980469 C 458.691406 160.601562 458.851562 161.234375 458.976562 161.871094 C 459.105469 162.511719 459.199219 163.15625 459.265625 163.804688 C 459.328125 164.453125 459.359375 165.101562 459.359375 165.753906 Z M 459.359375 165.753906 " fill-opacity="1" fill-rule="nonzero"/><path fill="rgb(100%, 100%, 100%)" d="M 439.480469 185.648438 C 428.496094 185.648438 419.59375 176.738281 419.59375 165.753906 C 419.59375 154.765625 428.496094 145.859375 439.480469 145.859375 " fill-opacity="1" fill-rule="nonzero"/><path stroke-linecap="round" transform="matrix(4.804964, 0, 0, 4.806719, -31.712763, -36.470307)" fill="none" stroke-linejoin="round" d="M 102.200998 42.071155 C 102.200998 42.20687 102.194495 42.341772 102.181487 42.476675 C 102.167667 42.611577 102.148156 42.745667 102.121328 42.878131 C 102.095313 43.011408 102.061982 43.142247 102.02296 43.272273 C 101.983125 43.401487 101.937599 43.529075 101.886382 43.654226 C 101.834353 43.779376 101.776633 43.902088 101.712409 44.02155 C 101.648185 44.141012 101.579083 44.257223 101.503478 44.370183 C 101.428685 44.482331 101.347389 44.591228 101.262028 44.696062 C 101.175854 44.800895 101.084803 44.900853 100.988873 44.996747 C 100.892944 45.092642 100.792949 45.18366 100.688077 45.269803 C 100.583205 45.355945 100.474269 45.436399 100.36208 45.511977 C 100.249078 45.586742 100.132825 45.656631 100.01332 45.720019 C 99.893814 45.784219 99.77187 45.841919 99.646674 45.893929 C 99.521478 45.94594 99.393843 45.991449 99.264582 46.030457 C 99.134508 46.070277 99.002809 46.102784 98.870296 46.129602 C 98.73697 46.155607 98.603645 46.175924 98.468693 46.188926 C 98.333741 46.202742 98.19879 46.209243 98.063025 46.209243 C 97.927261 46.209243 97.792309 46.202742 97.657358 46.188926 C 97.522406 46.175924 97.388267 46.155607 97.255755 46.129602 C 97.122429 46.102784 96.991542 46.070277 96.861469 46.030457 C 96.732208 45.991449 96.604573 45.94594 96.479377 45.893929 C 96.354181 45.841919 96.232236 45.784219 96.112731 45.720019 C 95.993226 45.656631 95.876972 45.586742 95.763971 45.511977 C 95.650969 45.436399 95.542845 45.355945 95.437973 45.269803 C 95.333101 45.18366 95.233107 45.092642 95.137178 44.996747 C 95.041248 44.900853 94.950196 44.800895 94.864023 44.696062 C 94.778662 44.591228 94.697366 44.482331 94.622573 44.370183 C 94.546968 44.257223 94.477866 44.141012 94.413642 44.02155 C 94.349418 43.902088 94.291698 43.779376 94.239668 43.654226 C 94.188452 43.529075 94.142113 43.401487 94.103091 43.272273 C 94.064069 43.142247 94.030737 43.011408 94.004722 42.878131 C 93.977895 42.745667 93.958384 42.611577 93.944563 42.476675 C 93.931556 42.341772 93.925052 42.20687 93.925052 42.071155 C 93.925052 41.93544 93.931556 41.800538 93.944563 41.665635 C 93.958384 41.530733 93.977895 41.396643 94.004722 41.263366 C 94.030737 41.130902 94.064069 40.99925 94.103091 40.870037 C 94.142113 40.74001 94.188452 40.612422 94.239668 40.487272 C 94.291698 40.362121 94.349418 40.240222 94.413642 40.12076 C 94.477866 40.000486 94.546968 39.885087 94.622573 39.772127 C 94.697366 39.659167 94.778662 39.55027 94.864023 39.446249 C 94.950196 39.341415 95.041248 39.240644 95.137178 39.14475 C 95.233107 39.048856 95.333101 38.95865 95.437973 38.872507 C 95.542845 38.786365 95.650969 38.705911 95.763971 38.630333 C 95.876972 38.554755 95.993226 38.485679 96.112731 38.421479 C 96.232236 38.358091 96.354181 38.299579 96.479377 38.248381 C 96.604573 38.19637 96.732208 38.150861 96.861469 38.111041 C 96.991542 38.072033 97.122429 38.038714 97.255755 38.012708 C 97.388267 37.98589 97.522406 37.966386 97.657358 37.952571 C 97.792309 37.939568 97.927261 37.933067 98.063025 37.933067 C 98.19879 37.933067 98.333741 37.939568 98.468693 37.952571 C 98.603645 37.966386 98.73697 37.98589 98.870296 38.012708 C 99.002809 38.038714 99.134508 38.072033 99.264582 38.111041 C 99.393843 38.150861 99.521478 38.19637 99.646674 38.248381 C 99.77187 38.299579 99.893814 38.358091 100.01332 38.421479 C 100.132825 38.485679 100.249078 38.554755 100.36208 38.630333 C 100.474269 38.705911 100.583205 38.786365 100.688077 38.872507 C 100.792949 38.95865 100.892944 39.048856 100.988873 39.14475 C 101.084803 39.240644 101.175854 39.341415 101.262028 39.446249 C 101.347389 39.55027 101.428685 39.659167 101.503478 39.772127 C 101.579083 39.885087 101.648185 40.000486 101.712409 40.12076 C 101.776633 40.240222 101.834353 40.362121 101.886382 40.487272 C 101.937599 40.612422 101.983125 40.74001 102.02296 40.870037 C 102.061982 40.99925 102.095313 41.130902 102.121328 41.263366 C 102.148156 41.396643 102.167667 41.530733 102.181487 41.665635 C 102.194495 41.800538 102.200998 41.93544 102.200998 42.071155 Z M 102.200998 42.071155 " stroke="rgb(19.999695%, 21.179199%, 22.749329%)" stroke-width="3" stroke-opacity="1" stroke-miterlimit="10"/><path stroke-linecap="round" transform="matrix(4.804964, 0, 0, 4.806719, -31.712763, -36.470307)" fill="none" stroke-linejoin="round" d="M 131.93262 130.788119 L 126.040276 130.788119 " stroke="rgb(19.999695%, 21.179199%, 22.749329%)" stroke-width="3" stroke-opacity="1" stroke-miterlimit="10"/><path stroke-linecap="round" transform="matrix(4.804964, 0, 0, 4.806719, -31.712763, -36.470307)" fill="none" stroke-linejoin="round" d="M 114.446635 130.788119 L 63.343887 130.788119 " stroke="rgb(19.999695%, 21.179199%, 22.749329%)" stroke-width="3" stroke-opacity="1" stroke-miterlimit="10"/><path stroke-linecap="round" transform="matrix(4.804964, 0, 0, 4.806719, -31.712763, -36.470307)" fill="none" stroke-linejoin="round" d="M 120.735703 130.788119 L 119.637393 130.788119 " stroke="rgb(19.999695%, 21.179199%, 22.749329%)" stroke-width="3" stroke-opacity="1" stroke-miterlimit="10"/></svg>